# xmcd
#
# Track frame offsets:
#	150
#	13066
#	26264
#	41438
#	60086
#	76554
#	90316
#	100402
#	116574
#	130571
#	147920
#	170340
#
# Disc length: 2498
#
# Revision: 2
# Processed by: cddbd v1.5.1PL0 Copyright (c) Steve Scherf et al.
# Submitted via: EasyCDDAExtractor 7.0.5.4
# Normalized: r1:DSETVAR1
#
DISCID=7e09c00c
DTITLE=Various Artist - Country Hits
DYEAR=1900
DGENRE=Country
TTITLE0=Trisha Yearwood - X's and O's
TTITLE1=Glen Campbell - Gentle On My Mind
TTITLE2=Rich Van Shelton - Wild Man
TTITLE3=Shania Twain - Any Man Of Mine
TTITLE4=Charlie Robison - Barfight
TTITLE5=Trick Pony - On A Mission
TTITLE6=Lorretta Lynn - Woman Enough
TTITLE7=Randy Travis - Forever And Ever Amen
TTITLE8=Clint Black - A Better Man
TTITLE9=Joe Diffie - Prop Me Up Beside The Jukebox
TTITLE10=Reba McEntire - Fancy
TTITLE11=Chad Brock - Lightning Does The Work
EXTD=
EXTT0=
EXTT1=
EXTT2=
EXTT3=
EXTT4=
EXTT5=
EXTT6=
EXTT7=
EXTT8=
EXTT9=
EXTT10=
EXTT11=
PLAYORDER=
